<svg xmlns="http://www.w3.org/2000/svg" xmlns:xlink="http://www.w3.org/1999/xlink" width="500" zoomAndPan="magnify" viewBox="0 0 375 374.999991" height="500" preserveAspectRatio="xMidYMid meet" version="1.0"><defs><clipPath id="0d74269a02"><path d="M 0 0 L 374.855469 0 L 374.855469 375 L 0 375 Z M 0 0 " clip-rule="nonzero"/></clipPath></defs><g clip-path="url(#0d74269a02)"><path fill="#000000" d="M 187.355469 -0.0742188 C 83.800781 -0.0742188 -0.144531 83.902344 -0.144531 187.488281 C -0.144531 291.074219 83.800781 375.046875 187.355469 375.046875 C 290.910156 375.046875 374.855469 291.074219 374.855469 187.488281 C 374.855469 83.902344 290.910156 -0.0742188 187.355469 -0.0742188 Z M 31.105469 187.488281 C 31.105469 101.164062 101.0625 31.1875 187.355469 31.1875 C 273.652344 31.1875 343.605469 101.164062 343.605469 187.488281 C 343.605469 257.828125 297.152344 317.316406 233.261719 336.929688 C 235.007812 305.339844 234.410156 285.773438 231.464844 278.226562 C 228.359375 270.265625 225.828125 267 224.308594 265.042969 C 223.316406 263.757812 222.753906 263.039062 222.753906 261.925781 C 222.753906 260.046875 224.074219 258.6875 226.714844 257.847656 C 249.738281 252.753906 265.175781 238.601562 273.03125 215.386719 C 283.910156 183.222656 268.378906 159.832031 262.09375 150.367188 C 261.574219 149.585938 261.121094 148.898438 260.746094 148.308594 C 255.859375 140.59375 262.261719 121.8125 269.90625 106.785156 C 243.910156 101.570312 233.980469 113.652344 228.285156 120.582031 C 225.960938 123.410156 224.339844 125.382812 222.621094 124.964844 C 221.085938 124.589844 219.433594 123.863281 217.449219 122.992188 C 211.773438 120.496094 203.402344 116.8125 187.355469 116.8125 C 167.457031 116.8125 154.273438 123.765625 152.257812 124.828125 C 152.082031 124.921875 151.988281 124.964844 151.988281 124.964844 C 141.53125 110.382812 126.679688 104.324219 107.429688 106.785156 C 112.730469 127.972656 113.128906 141.816406 108.625 148.308594 C 101.871094 158.050781 89.207031 180.714844 99.035156 215.386719 C 108.867188 250.058594 144.664062 257.847656 151.476562 257.847656 L 151.519531 257.855469 C 152.0625 257.972656 157.074219 259.054688 155.570312 263.292969 C 155.273438 264.421875 155.078125 265.957031 154.855469 267.683594 C 154.148438 273.234375 153.179688 280.777344 147.859375 283.230469 C 140.878906 286.449219 125.484375 288.203125 119.042969 284.1875 C 116.898438 282.851562 115.355469 280.054688 113.5 276.683594 C 109.785156 269.9375 104.804688 260.902344 91.191406 256.695312 C 70.777344 250.390625 72.054688 258.726562 77.152344 260.773438 C 78.273438 261.222656 79.761719 261.644531 81.457031 262.128906 C 87.46875 263.828125 96.117188 266.28125 100.550781 273.414062 C 101.847656 275.507812 103.1875 277.796875 104.550781 280.136719 C 109.164062 288.039062 114.105469 296.511719 119.042969 299.757812 C 123.308594 302.566406 133.535156 303.6875 149.722656 303.128906 C 149.019531 318.414062 148.644531 330.351562 148.59375 338.9375 C 81.050781 321.691406 31.105469 260.425781 31.105469 187.488281 Z M 31.105469 187.488281 " fill-opacity="0.85" fill-rule="evenodd"/></g></svg>