<svg xmlns="http://www.w3.org/2000/svg" xmlns:xlink="http://www.w3.org/1999/xlink" width="500" zoomAndPan="magnify" viewBox="0 0 375 374.999991" height="500" preserveAspectRatio="xMidYMid meet" version="1.0"><path fill="#000000" d="M 341.339844 375 L 33.660156 375 C 32.558594 375 31.457031 374.945312 30.363281 374.835938 C 29.265625 374.726562 28.175781 374.5625 27.09375 374.347656 C 26.015625 374.132812 24.945312 373.863281 23.894531 373.542969 C 22.839844 373.222656 21.800781 372.851562 20.785156 372.429688 C 19.765625 372.007812 18.769531 371.535156 17.800781 371.015625 C 16.828125 370.496094 15.882812 369.929688 14.96875 369.316406 C 14.050781 368.703125 13.167969 368.046875 12.316406 367.347656 C 11.464844 366.648438 10.648438 365.910156 9.871094 365.128906 C 9.089844 364.351562 8.351562 363.535156 7.652344 362.683594 C 6.953125 361.832031 6.296875 360.949219 5.683594 360.03125 C 5.070312 359.117188 4.503906 358.171875 3.984375 357.199219 C 3.464844 356.230469 2.992188 355.234375 2.570312 354.214844 C 2.148438 353.199219 1.777344 352.160156 1.457031 351.105469 C 1.136719 350.054688 0.867188 348.984375 0.652344 347.90625 C 0.4375 346.824219 0.273438 345.734375 0.164062 344.636719 C 0.0546875 343.542969 0 342.441406 0 341.339844 L 0 33.660156 C 0 32.558594 0.0546875 31.457031 0.164062 30.363281 C 0.273438 29.265625 0.4375 28.175781 0.652344 27.09375 C 0.867188 26.015625 1.136719 24.945312 1.457031 23.894531 C 1.777344 22.839844 2.148438 21.800781 2.570312 20.785156 C 2.992188 19.765625 3.464844 18.769531 3.984375 17.800781 C 4.503906 16.828125 5.070312 15.882812 5.683594 14.96875 C 6.296875 14.050781 6.953125 13.167969 7.652344 12.316406 C 8.351562 11.464844 9.089844 10.648438 9.871094 9.871094 C 10.648438 9.089844 11.464844 8.351562 12.316406 7.652344 C 13.167969 6.953125 14.050781 6.296875 14.96875 5.683594 C 15.882812 5.070312 16.828125 4.503906 17.800781 3.984375 C 18.769531 3.464844 19.765625 2.992188 20.785156 2.570312 C 21.800781 2.148438 22.839844 1.777344 23.894531 1.457031 C 24.945312 1.136719 26.015625 0.867188 27.09375 0.652344 C 28.175781 0.4375 29.265625 0.273438 30.363281 0.164062 C 31.457031 0.0546875 32.558594 0 33.660156 0 L 341.339844 0 C 342.441406 0 343.542969 0.0546875 344.640625 0.164062 C 345.734375 0.273438 346.824219 0.4375 347.90625 0.652344 C 348.984375 0.867188 350.054688 1.136719 351.105469 1.457031 C 352.160156 1.777344 353.199219 2.148438 354.214844 2.570312 C 355.234375 2.992188 356.230469 3.464844 357.199219 3.984375 C 358.171875 4.503906 359.117188 5.070312 360.03125 5.683594 C 360.949219 6.296875 361.832031 6.953125 362.683594 7.652344 C 363.535156 8.351562 364.351562 9.089844 365.128906 9.871094 C 365.910156 10.648438 366.648438 11.464844 367.347656 12.316406 C 368.046875 13.167969 368.703125 14.050781 369.316406 14.96875 C 369.929688 15.882812 370.496094 16.828125 371.015625 17.800781 C 371.535156 18.769531 372.007812 19.765625 372.429688 20.785156 C 372.851562 21.800781 373.222656 22.839844 373.542969 23.894531 C 373.863281 24.945312 374.132812 26.015625 374.347656 27.09375 C 374.5625 28.175781 374.726562 29.265625 374.835938 30.363281 C 374.945312 31.457031 375 32.558594 375 33.660156 L 375 341.339844 C 375 342.441406 374.945312 343.542969 374.835938 344.636719 C 374.726562 345.734375 374.5625 346.824219 374.347656 347.90625 C 374.132812 348.984375 373.863281 350.054688 373.542969 351.105469 C 373.222656 352.160156 372.851562 353.199219 372.429688 354.214844 C 372.003906 355.234375 371.535156 356.230469 371.015625 357.199219 C 370.496094 358.171875 369.929688 359.117188 369.316406 360.03125 C 368.703125 360.949219 368.046875 361.832031 367.347656 362.683594 C 366.648438 363.535156 365.910156 364.351562 365.128906 365.128906 C 364.351562 365.910156 363.535156 366.648438 362.683594 367.347656 C 361.832031 368.046875 360.949219 368.703125 360.03125 369.316406 C 359.117188 369.929688 358.171875 370.496094 357.199219 371.015625 C 356.230469 371.535156 355.234375 372.003906 354.214844 372.429688 C 353.199219 372.851562 352.160156 373.222656 351.105469 373.542969 C 350.054688 373.863281 348.984375 374.132812 347.90625 374.347656 C 346.824219 374.5625 345.734375 374.726562 344.636719 374.835938 C 343.542969 374.945312 342.441406 375 341.339844 375 Z M 33.660156 12.679688 C 32.972656 12.683594 32.289062 12.714844 31.605469 12.785156 C 30.921875 12.851562 30.242188 12.953125 29.566406 13.089844 C 28.894531 13.222656 28.230469 13.390625 27.574219 13.589844 C 26.914062 13.789062 26.269531 14.019531 25.636719 14.285156 C 25 14.546875 24.378906 14.839844 23.773438 15.164062 C 23.167969 15.488281 22.582031 15.84375 22.011719 16.222656 C 21.4375 16.605469 20.886719 17.015625 20.355469 17.449219 C 19.824219 17.886719 19.316406 18.347656 18.832031 18.832031 C 18.347656 19.316406 17.886719 19.824219 17.449219 20.355469 C 17.015625 20.886719 16.605469 21.4375 16.222656 22.011719 C 15.84375 22.582031 15.488281 23.167969 15.164062 23.773438 C 14.839844 24.378906 14.546875 25 14.285156 25.636719 C 14.019531 26.269531 13.789062 26.914062 13.589844 27.574219 C 13.390625 28.230469 13.222656 28.894531 13.089844 29.566406 C 12.953125 30.242188 12.851562 30.921875 12.785156 31.605469 C 12.714844 32.289062 12.683594 32.972656 12.679688 33.660156 L 12.679688 341.339844 C 12.683594 342.027344 12.714844 342.710938 12.785156 343.394531 C 12.851562 344.078125 12.953125 344.757812 13.089844 345.433594 C 13.222656 346.105469 13.390625 346.769531 13.589844 347.425781 C 13.789062 348.085938 14.019531 348.730469 14.285156 349.363281 C 14.546875 350 14.839844 350.621094 15.164062 351.226562 C 15.488281 351.832031 15.84375 352.417969 16.222656 352.988281 C 16.605469 353.5625 17.015625 354.113281 17.449219 354.644531 C 17.886719 355.175781 18.347656 355.683594 18.832031 356.167969 C 19.316406 356.652344 19.824219 357.113281 20.355469 357.550781 C 20.886719 357.984375 21.4375 358.394531 22.011719 358.777344 C 22.582031 359.15625 23.167969 359.511719 23.773438 359.835938 C 24.378906 360.160156 25 360.453125 25.636719 360.714844 C 26.269531 360.980469 26.914062 361.210938 27.574219 361.410156 C 28.230469 361.609375 28.894531 361.777344 29.566406 361.910156 C 30.242188 362.046875 30.921875 362.148438 31.605469 362.214844 C 32.289062 362.285156 32.972656 362.316406 33.660156 362.320312 L 341.339844 362.320312 C 342.027344 362.316406 342.710938 362.285156 343.394531 362.214844 C 344.078125 362.148438 344.757812 362.046875 345.433594 361.910156 C 346.105469 361.777344 346.769531 361.609375 347.425781 361.410156 C 348.085938 361.210938 348.730469 360.980469 349.363281 360.714844 C 350 360.453125 350.621094 360.160156 351.226562 359.835938 C 351.832031 359.511719 352.417969 359.15625 352.988281 358.777344 C 353.5625 358.394531 354.113281 357.984375 354.644531 357.550781 C 355.171875 357.113281 355.683594 356.652344 356.167969 356.167969 C 356.652344 355.683594 357.113281 355.171875 357.550781 354.644531 C 357.984375 354.113281 358.394531 353.5625 358.777344 352.988281 C 359.15625 352.417969 359.511719 351.832031 359.835938 351.226562 C 360.160156 350.621094 360.453125 350 360.714844 349.363281 C 360.980469 348.730469 361.210938 348.085938 361.410156 347.425781 C 361.609375 346.769531 361.777344 346.105469 361.910156 345.433594 C 362.046875 344.757812 362.148438 344.078125 362.214844 343.394531 C 362.285156 342.710938 362.316406 342.027344 362.320312 341.339844 L 362.320312 33.660156 C 362.316406 32.972656 362.285156 32.289062 362.214844 31.605469 C 362.148438 30.921875 362.046875 30.242188 361.910156 29.566406 C 361.777344 28.894531 361.609375 28.230469 361.410156 27.574219 C 361.210938 26.914062 360.980469 26.269531 360.714844 25.636719 C 360.453125 25 360.160156 24.378906 359.835938 23.773438 C 359.511719 23.167969 359.15625 22.582031 358.777344 22.011719 C 358.394531 21.4375 357.984375 20.886719 357.550781 20.355469 C 357.113281 19.824219 356.652344 19.316406 356.167969 18.832031 C 355.683594 18.347656 355.175781 17.886719 354.644531 17.449219 C 354.113281 17.015625 353.5625 16.605469 352.988281 16.222656 C 352.417969 15.84375 351.832031 15.488281 351.226562 15.164062 C 350.621094 14.839844 350 14.546875 349.363281 14.285156 C 348.730469 14.019531 348.085938 13.789062 347.425781 13.589844 C 346.769531 13.390625 346.105469 13.222656 345.433594 13.089844 C 344.757812 12.953125 344.078125 12.851562 343.394531 12.785156 C 342.710938 12.714844 342.027344 12.683594 341.339844 12.679688 Z M 33.660156 12.679688 " fill-opacity="1" fill-rule="nonzero"/><path fill="#000000" d="M 327.304688 346.589844 L 47.695312 346.589844 C 47.0625 346.589844 46.433594 346.558594 45.804688 346.496094 C 45.175781 346.433594 44.554688 346.339844 43.933594 346.214844 C 43.316406 346.089844 42.703125 345.9375 42.097656 345.753906 C 41.496094 345.570312 40.902344 345.359375 40.320312 345.117188 C 39.734375 344.875 39.164062 344.605469 38.609375 344.304688 C 38.050781 344.007812 37.511719 343.683594 36.984375 343.332031 C 36.460938 342.980469 35.953125 342.605469 35.46875 342.207031 C 34.980469 341.804688 34.511719 341.382812 34.066406 340.933594 C 33.617188 340.488281 33.195312 340.019531 32.792969 339.53125 C 32.394531 339.046875 32.019531 338.539062 31.667969 338.015625 C 31.316406 337.488281 30.992188 336.949219 30.695312 336.390625 C 30.394531 335.835938 30.125 335.265625 29.882812 334.679688 C 29.640625 334.097656 29.429688 333.503906 29.246094 332.902344 C 29.0625 332.296875 28.910156 331.683594 28.785156 331.066406 C 28.660156 330.445312 28.566406 329.824219 28.503906 329.195312 C 28.441406 328.566406 28.410156 327.9375 28.410156 327.304688 L 28.410156 47.695312 C 28.410156 47.0625 28.441406 46.433594 28.503906 45.804688 C 28.566406 45.175781 28.660156 44.554688 28.785156 43.933594 C 28.910156 43.316406 29.0625 42.703125 29.246094 42.097656 C 29.429688 41.496094 29.640625 40.902344 29.882812 40.320312 C 30.125 39.734375 30.394531 39.164062 30.695312 38.609375 C 30.992188 38.050781 31.316406 37.511719 31.667969 36.984375 C 32.019531 36.460938 32.394531 35.953125 32.792969 35.46875 C 33.195312 34.980469 33.617188 34.511719 34.066406 34.066406 C 34.511719 33.617188 34.980469 33.195312 35.46875 32.792969 C 35.953125 32.394531 36.460938 32.019531 36.984375 31.667969 C 37.511719 31.316406 38.050781 30.992188 38.609375 30.695312 C 39.164062 30.394531 39.734375 30.125 40.320312 29.882812 C 40.902344 29.640625 41.496094 29.429688 42.097656 29.246094 C 42.703125 29.0625 43.316406 28.910156 43.933594 28.785156 C 44.554688 28.660156 45.175781 28.566406 45.804688 28.503906 C 46.433594 28.441406 47.0625 28.410156 47.695312 28.410156 L 327.304688 28.410156 C 327.9375 28.410156 328.566406 28.441406 329.195312 28.503906 C 329.824219 28.566406 330.445312 28.660156 331.066406 28.785156 C 331.683594 28.910156 332.296875 29.0625 332.902344 29.246094 C 333.503906 29.429688 334.097656 29.640625 334.679688 29.882812 C 335.265625 30.125 335.835938 30.394531 336.390625 30.695312 C 336.949219 30.992188 337.488281 31.316406 338.015625 31.667969 C 338.539062 32.019531 339.046875 32.394531 339.53125 32.792969 C 340.019531 33.195312 340.488281 33.617188 340.933594 34.066406 C 341.382812 34.511719 341.804688 34.980469 342.207031 35.46875 C 342.605469 35.953125 342.980469 36.460938 343.332031 36.984375 C 343.683594 37.511719 344.007812 38.050781 344.304688 38.609375 C 344.605469 39.164062 344.875 39.734375 345.117188 40.320312 C 345.359375 40.902344 345.570312 41.496094 345.753906 42.097656 C 345.9375 42.703125 346.089844 43.316406 346.214844 43.933594 C 346.339844 44.554688 346.433594 45.175781 346.496094 45.804688 C 346.558594 46.433594 346.589844 47.0625 346.589844 47.695312 L 346.589844 327.304688 C 346.589844 327.9375 346.558594 328.566406 346.496094 329.195312 C 346.433594 329.824219 346.339844 330.445312 346.214844 331.066406 C 346.089844 331.683594 345.9375 332.296875 345.753906 332.902344 C 345.570312 333.503906 345.359375 334.097656 345.117188 334.679688 C 344.875 335.265625 344.605469 335.835938 344.304688 336.390625 C 344.007812 336.949219 343.683594 337.488281 343.332031 338.015625 C 342.980469 338.539062 342.605469 339.046875 342.207031 339.53125 C 341.804688 340.019531 341.382812 340.488281 340.933594 340.933594 C 340.488281 341.382812 340.019531 341.804688 339.53125 342.207031 C 339.046875 342.605469 338.539062 342.980469 338.015625 343.332031 C 337.488281 343.683594 336.949219 344.007812 336.390625 344.304688 C 335.835938 344.605469 335.265625 344.875 334.679688 345.117188 C 334.097656 345.359375 333.503906 345.570312 332.902344 345.753906 C 332.296875 345.9375 331.683594 346.089844 331.066406 346.214844 C 330.445312 346.339844 329.824219 346.433594 329.195312 346.496094 C 328.566406 346.558594 327.9375 346.589844 327.304688 346.589844 Z M 47.695312 41.089844 C 47.261719 41.09375 46.832031 41.136719 46.40625 41.21875 C 45.980469 41.304688 45.570312 41.429688 45.167969 41.597656 C 44.769531 41.761719 44.386719 41.964844 44.027344 42.207031 C 43.667969 42.449219 43.335938 42.722656 43.027344 43.027344 C 42.722656 43.335938 42.449219 43.667969 42.207031 44.027344 C 41.964844 44.386719 41.761719 44.769531 41.597656 45.167969 C 41.429688 45.570312 41.304688 45.980469 41.21875 46.40625 C 41.136719 46.832031 41.09375 47.261719 41.089844 47.695312 L 41.089844 327.304688 C 41.09375 327.738281 41.136719 328.167969 41.21875 328.59375 C 41.304688 329.019531 41.429688 329.429688 41.597656 329.832031 C 41.761719 330.230469 41.964844 330.613281 42.207031 330.972656 C 42.449219 331.332031 42.722656 331.664062 43.027344 331.972656 C 43.335938 332.277344 43.667969 332.550781 44.027344 332.792969 C 44.386719 333.035156 44.769531 333.238281 45.167969 333.402344 C 45.570312 333.570312 45.980469 333.695312 46.40625 333.78125 C 46.832031 333.863281 47.261719 333.90625 47.695312 333.910156 L 327.304688 333.910156 C 327.738281 333.90625 328.167969 333.863281 328.59375 333.78125 C 329.019531 333.695312 329.429688 333.570312 329.832031 333.402344 C 330.230469 333.238281 330.613281 333.035156 330.972656 332.792969 C 331.332031 332.550781 331.664062 332.277344 331.972656 331.972656 C 332.277344 331.664062 332.550781 331.332031 332.792969 330.972656 C 333.035156 330.613281 333.238281 330.230469 333.402344 329.832031 C 333.570312 329.429688 333.695312 329.019531 333.78125 328.59375 C 333.863281 328.167969 333.90625 327.738281 333.910156 327.304688 L 333.910156 47.695312 C 333.90625 47.261719 333.863281 46.832031 333.78125 46.40625 C 333.695312 45.980469 333.570312 45.570312 333.402344 45.167969 C 333.238281 44.769531 333.035156 44.386719 332.792969 44.027344 C 332.550781 43.667969 332.277344 43.335938 331.972656 43.027344 C 331.664062 42.722656 331.332031 42.449219 330.972656 42.207031 C 330.613281 41.964844 330.230469 41.761719 329.832031 41.597656 C 329.429688 41.429688 329.019531 41.304688 328.59375 41.21875 C 328.167969 41.136719 327.738281 41.09375 327.304688 41.089844 Z M 47.695312 41.089844 " fill-opacity="1" fill-rule="nonzero"/><path fill="#000000" d="M 101.550781 320.238281 L 68.589844 320.238281 C 68.175781 320.238281 67.761719 320.199219 67.355469 320.117188 C 66.945312 320.035156 66.550781 319.917969 66.164062 319.757812 C 65.78125 319.597656 65.414062 319.402344 65.070312 319.171875 C 64.722656 318.941406 64.402344 318.675781 64.109375 318.382812 C 63.8125 318.089844 63.550781 317.769531 63.320312 317.421875 C 63.089844 317.074219 62.894531 316.710938 62.734375 316.324219 C 62.574219 315.941406 62.453125 315.542969 62.371094 315.136719 C 62.292969 314.726562 62.25 314.316406 62.25 313.898438 L 62.25 132.636719 C 62.25 132.21875 62.292969 131.808594 62.371094 131.398438 C 62.453125 130.992188 62.574219 130.59375 62.734375 130.210938 C 62.894531 129.824219 63.089844 129.460938 63.320312 129.113281 C 63.550781 128.765625 63.8125 128.445312 64.109375 128.152344 C 64.402344 127.859375 64.722656 127.59375 65.070312 127.363281 C 65.414062 127.132812 65.78125 126.9375 66.164062 126.777344 C 66.550781 126.617188 66.945312 126.5 67.355469 126.417969 C 67.761719 126.335938 68.175781 126.296875 68.589844 126.296875 L 101.550781 126.296875 C 101.964844 126.296875 102.378906 126.335938 102.785156 126.417969 C 103.195312 126.5 103.589844 126.617188 103.976562 126.777344 C 104.359375 126.9375 104.726562 127.132812 105.070312 127.363281 C 105.417969 127.59375 105.738281 127.859375 106.03125 128.152344 C 106.328125 128.445312 106.589844 128.765625 106.820312 129.113281 C 107.050781 129.460938 107.246094 129.824219 107.40625 130.210938 C 107.566406 130.59375 107.6875 130.992188 107.769531 131.398438 C 107.847656 131.808594 107.890625 132.21875 107.890625 132.636719 L 107.890625 313.898438 C 107.890625 314.316406 107.847656 314.726562 107.769531 315.136719 C 107.6875 315.542969 107.566406 315.941406 107.40625 316.324219 C 107.246094 316.710938 107.050781 317.074219 106.820312 317.421875 C 106.589844 317.769531 106.328125 318.089844 106.03125 318.382812 C 105.738281 318.675781 105.417969 318.941406 105.070312 319.171875 C 104.726562 319.402344 104.359375 319.597656 103.976562 319.757812 C 103.589844 319.917969 103.195312 320.035156 102.785156 320.117188 C 102.378906 320.199219 101.964844 320.238281 101.550781 320.238281 Z M 74.933594 307.558594 L 95.207031 307.558594 L 95.207031 138.976562 L 74.933594 138.976562 Z M 84.320312 108.285156 C 82.566406 108.304688 80.828125 108.148438 79.105469 107.8125 C 77.382812 107.480469 75.710938 106.976562 74.089844 106.300781 C 72.472656 105.625 70.933594 104.796875 69.484375 103.808594 C 68.035156 102.820312 66.699219 101.699219 65.476562 100.4375 C 64.289062 99.1875 63.234375 97.835938 62.3125 96.382812 C 61.386719 94.929688 60.609375 93.398438 59.980469 91.796875 C 59.351562 90.191406 58.882812 88.542969 58.570312 86.847656 C 58.261719 85.152344 58.113281 83.445312 58.132812 81.722656 C 58.132812 66.359375 69.714844 54.777344 85.074219 54.777344 C 100.429688 54.777344 111.585938 66.058594 111.636719 81.617188 C 111.847656 88.738281 109.371094 95.347656 104.636719 100.234375 C 99.636719 105.40625 92.390625 108.265625 84.320312 108.265625 Z M 85.074219 67.460938 C 76.8125 67.460938 70.816406 73.457031 70.816406 81.722656 C 70.816406 89.765625 76.496094 95.601562 84.320312 95.601562 C 89 95.601562 92.871094 94.15625 95.519531 91.417969 C 97.894531 88.960938 99.085938 85.683594 98.957031 81.929688 C 98.957031 81.863281 98.957031 81.789062 98.957031 81.722656 C 98.953125 73.039062 93.503906 67.441406 85.074219 67.441406 Z M 111.636719 81.722656 Z M 111.636719 81.722656 " fill-opacity="1" fill-rule="nonzero"/><path fill="#000000" d="M 310.523438 320.238281 L 277.566406 320.238281 C 277.152344 320.238281 276.738281 320.199219 276.332031 320.117188 C 275.921875 320.035156 275.527344 319.917969 275.140625 319.757812 C 274.757812 319.597656 274.390625 319.402344 274.046875 319.171875 C 273.699219 318.941406 273.378906 318.675781 273.085938 318.382812 C 272.789062 318.089844 272.527344 317.769531 272.296875 317.421875 C 272.066406 317.074219 271.871094 316.710938 271.710938 316.324219 C 271.550781 315.941406 271.429688 315.542969 271.347656 315.136719 C 271.269531 314.726562 271.226562 314.316406 271.226562 313.898438 L 271.226562 209.410156 C 271.226562 194.992188 268.386719 183.171875 263.007812 175.234375 C 257.054688 166.457031 248.101562 162.195312 235.625 162.195312 C 215.464844 162.195312 201.949219 176.871094 197.496094 191.417969 C 197.464844 191.523438 197.425781 191.625 197.390625 191.726562 C 196.203125 194.988281 195.523438 199.792969 195.523438 204.914062 L 195.523438 313.898438 C 195.523438 314.316406 195.484375 314.726562 195.402344 315.136719 C 195.320312 315.542969 195.203125 315.941406 195.042969 316.324219 C 194.882812 316.710938 194.6875 317.074219 194.457031 317.421875 C 194.226562 317.769531 193.960938 318.089844 193.667969 318.382812 C 193.375 318.675781 193.054688 318.941406 192.707031 319.171875 C 192.359375 319.402344 191.996094 319.597656 191.609375 319.757812 C 191.226562 319.917969 190.828125 320.035156 190.421875 320.117188 C 190.011719 320.199219 189.601562 320.238281 189.183594 320.238281 L 156.25 320.238281 C 155.832031 320.238281 155.421875 320.199219 155.011719 320.117188 C 154.605469 320.035156 154.207031 319.917969 153.824219 319.757812 C 153.4375 319.597656 153.074219 319.402344 152.726562 319.171875 C 152.382812 318.941406 152.0625 318.675781 151.765625 318.382812 C 151.472656 318.089844 151.210938 317.769531 150.976562 317.421875 C 150.746094 317.074219 150.550781 316.710938 150.390625 316.324219 C 150.234375 315.941406 150.113281 315.542969 150.03125 315.136719 C 149.949219 314.726562 149.910156 314.316406 149.910156 313.898438 L 149.910156 181.695312 C 149.910156 161.476562 149.457031 146.941406 148.429688 133.105469 C 148.398438 132.671875 148.410156 132.238281 148.46875 131.804688 C 148.527344 131.375 148.628906 130.953125 148.773438 130.542969 C 148.921875 130.128906 149.105469 129.738281 149.332031 129.363281 C 149.558594 128.992188 149.820312 128.648438 150.117188 128.328125 C 150.414062 128.007812 150.742188 127.722656 151.097656 127.472656 C 151.453125 127.222656 151.832031 127.007812 152.234375 126.835938 C 152.632812 126.664062 153.046875 126.53125 153.472656 126.445312 C 153.902344 126.355469 154.332031 126.3125 154.769531 126.3125 L 183.980469 126.3125 C 184.382812 126.3125 184.777344 126.347656 185.171875 126.421875 C 185.5625 126.496094 185.945312 126.609375 186.320312 126.753906 C 186.691406 126.902344 187.046875 127.082031 187.382812 127.296875 C 187.722656 127.511719 188.039062 127.753906 188.328125 128.027344 C 188.621094 128.300781 188.886719 128.597656 189.121094 128.921875 C 189.355469 129.246094 189.558594 129.589844 189.730469 129.949219 C 189.898438 130.3125 190.035156 130.6875 190.132812 131.074219 C 190.234375 131.460938 190.296875 131.855469 190.320312 132.253906 L 191.144531 145.472656 C 195.367188 140.953125 200.097656 137.042969 205.332031 133.746094 C 217.335938 126.1875 231.597656 122.191406 246.542969 122.191406 C 256.550781 122.191406 275.789062 124.382812 292.199219 139.066406 C 308.613281 153.75 316.925781 176.15625 316.925781 205.683594 L 316.925781 313.925781 C 316.921875 314.34375 316.878906 314.757812 316.796875 315.167969 C 316.714844 315.578125 316.589844 315.972656 316.429688 316.359375 C 316.265625 316.742188 316.070312 317.109375 315.835938 317.453125 C 315.601562 317.800781 315.335938 318.121094 315.039062 318.414062 C 314.738281 318.707031 314.417969 318.96875 314.066406 319.199219 C 313.71875 319.425781 313.351562 319.621094 312.964844 319.777344 C 312.578125 319.933594 312.175781 320.050781 311.765625 320.128906 C 311.355469 320.207031 310.941406 320.242188 310.523438 320.238281 Z M 283.910156 307.558594 L 304.183594 307.558594 L 304.183594 205.65625 C 304.183594 179.890625 297.292969 160.660156 283.6875 148.492188 C 269.917969 136.175781 253.085938 134.847656 246.484375 134.847656 C 218.25 134.847656 199.921875 150.699219 192.183594 165.519531 C 191.914062 166.035156 191.582031 166.503906 191.1875 166.925781 C 190.789062 167.347656 190.34375 167.710938 189.847656 168.011719 C 189.355469 168.3125 188.828125 168.539062 188.269531 168.695312 C 187.710938 168.851562 187.140625 168.929688 186.5625 168.929688 L 185.816406 168.929688 C 185.414062 168.933594 185.019531 168.894531 184.625 168.820312 C 184.230469 168.746094 183.847656 168.636719 183.476562 168.488281 C 183.105469 168.34375 182.75 168.160156 182.410156 167.949219 C 182.074219 167.734375 181.757812 167.488281 181.464844 167.214844 C 181.171875 166.941406 180.910156 166.644531 180.675781 166.320312 C 180.4375 165.996094 180.234375 165.652344 180.066406 165.289062 C 179.894531 164.929688 179.761719 164.554688 179.660156 164.164062 C 179.5625 163.777344 179.5 163.382812 179.476562 162.984375 L 177.972656 138.980469 L 161.511719 138.980469 C 162.246094 151.171875 162.589844 164.402344 162.589844 181.695312 L 162.589844 307.558594 L 182.867188 307.558594 L 182.867188 204.914062 C 182.867188 198.351562 183.773438 192.195312 185.4375 187.554688 C 187.074219 182.3125 189.4375 177.421875 192.523438 172.878906 C 195.609375 168.335938 199.285156 164.335938 203.554688 160.882812 C 205.808594 159.054688 208.199219 157.429688 210.726562 156.007812 C 213.257812 154.589844 215.890625 153.394531 218.625 152.425781 C 221.363281 151.457031 224.160156 150.730469 227.019531 150.242188 C 229.878906 149.753906 232.761719 149.511719 235.660156 149.515625 C 252.1875 149.515625 265.285156 155.945312 273.539062 168.121094 C 280.445312 178.304688 283.953125 192.199219 283.953125 209.410156 Z M 283.910156 307.558594 " fill-opacity="1" fill-rule="nonzero"/></svg>